<?xml version="1.0" encoding="UTF-8" standalone="no"?>
<!-- Created with Inkscape (http://www.inkscape.org/) -->

<svg
   width="45mm"
   height="45mm"
   viewBox="0 0 45 45"
   version="1.1"
   id="svg29987"
   sodipodi:docname="icon.svg"
   inkscape:version="1.1.1 (3bf5ae0, 2021-09-20)"
   xmlns:inkscape="http://www.inkscape.org/namespaces/inkscape"
   xmlns:sodipodi="http://sodipodi.sourceforge.net/DTD/sodipodi-0.dtd"
   xmlns="http://www.w3.org/2000/svg"
   xmlns:svg="http://www.w3.org/2000/svg">
  <sodipodi:namedview
     id="namedview29989"
     pagecolor="#ffffff"
     bordercolor="#666666"
     borderopacity="1.0"
     inkscape:pageshadow="2"
     inkscape:pageopacity="0.0"
     inkscape:pagecheckerboard="0"
     inkscape:document-units="mm"
     showgrid="false"
     width="200mm"
     inkscape:zoom="1.0733976"
     inkscape:cx="167.69182"
     inkscape:cy="155.11493"
     inkscape:window-width="2048"
     inkscape:window-height="1024"
     inkscape:window-x="0"
     inkscape:window-y="27"
     inkscape:window-maximized="1"
     inkscape:current-layer="g41784" />
  <defs
     id="defs29984" />
  <g
     inkscape:label="Layer 1"
     inkscape:groupmode="layer"
     id="layer1">
    <g
       id="g29956"
       transform="translate(-91.473827,-105.53801)">
      <g
         id="g34386">
        <g
           id="g41784"
           transform="translate(-44.507135,-27.356043)">
          <path
             id="path20742-7"
             style="fill:#44566c;fill-opacity:1;stroke:#44566c;stroke-width:0.264999;stroke-miterlimit:4;stroke-dasharray:none;stroke-opacity:1"
             d="m 159.1227,138.73711 a 18.773341,18.773341 0 0 0 -18.74201,18.33583 l 1.31517,-0.13797 a 17.472403,17.472403 0 0 1 17.11781,-16.87494 l 0.74725,-1.2914 a 18.773341,18.773341 0 0 0 -0.43822,-0.0315 z m 10.51409,3.25303 -0.65423,1.13068 a 17.472403,17.472403 0 0 1 7.61246,14.3893 17.472403,17.472403 0 0 1 -2.20865,8.41241 l 0.82424,1.26194 a 18.773341,18.773341 0 0 0 2.6851,-9.67435 18.773341,18.773341 0 0 0 -8.25892,-15.51998 z m -25.15557,25.04292 -1.41284,0.14831 a 18.773341,18.773341 0 0 0 16.05432,9.10229 18.773341,18.773341 0 0 0 8.39122,-1.98593 l -0.72812,-1.11466 a 17.472403,17.472403 0 0 1 -7.6631,1.79937 17.472403,17.472403 0 0 1 -14.64148,-7.94938 z" />
          <circle
             style="fill:#44566c;fill-opacity:1;stroke:#44566c;stroke-width:0.20149;stroke-miterlimit:4;stroke-dasharray:none;stroke-opacity:1"
             id="path21178-5"
             cx="159.08717"
             cy="139.23691"
             r="3.6989541"
             inkscape:export-filename="/home/vuluong/Work/vuluong/logo/2021-11/g5158.png"
             inkscape:export-xdpi="96"
             inkscape:export-ydpi="96" />
          <circle
             style="fill:#44566c;fill-opacity:1;stroke:#44566c;stroke-width:0.20149;stroke-miterlimit:4;stroke-dasharray:none;stroke-opacity:1"
             id="path21178-7-9"
             cx="174.27039"
             cy="168.29175"
             r="3.6989541"
             inkscape:export-filename="/home/vuluong/Work/vuluong/logo/2021-11/g5158.png"
             inkscape:export-xdpi="96"
             inkscape:export-ydpi="96" />
          <circle
             style="fill:#44566c;fill-opacity:1;stroke:#44566c;stroke-width:0.20149;stroke-miterlimit:4;stroke-dasharray:none;stroke-opacity:1"
             id="path21178-8-7"
             cx="143.05447"
             cy="165.22435"
             r="3.6989541"
             inkscape:export-filename="/home/vuluong/Work/vuluong/logo/2021-11/g5158.png"
             inkscape:export-xdpi="96"
             inkscape:export-ydpi="96" />
          <text
             xml:space="preserve"
             style="font-style:normal;font-weight:normal;font-size:28.2222px;line-height:1.25;font-family:sans-serif;fill:#44566c;fill-opacity:1;stroke:none;stroke-width:0.264583"
             x="150.82506"
             y="164.04373"
             id="text1163"><tspan
               sodipodi:role="line"
               id="tspan1161"
               style="font-style:normal;font-variant:normal;font-weight:normal;font-stretch:normal;font-size:28.2222px;font-family:Sarai;-inkscape-font-specification:Sarai;fill:#44566c;fill-opacity:1;stroke-width:0.264583"
               x="150.82506"
               y="164.04373">&lt;&gt;</tspan></text>
        </g>
      </g>
    </g>
  </g>
</svg>
