<?xml version="1.0" encoding="UTF-8" standalone="no"?>
<!DOCTYPE svg PUBLIC "-//W3C//DTD SVG 1.1//EN" "http://www.w3.org/Graphics/SVG/1.1/DTD/svg11.dtd">
<svg xmlns="http://www.w3.org/2000/svg" xmlns:xlink="http://www.w3.org/1999/xlink" version="1.1" width="127.55905pt" height="127.55905pt" viewBox="0 0 127.55905 127.55905">
<g enable-background="new">
<g>
<path d="M 65.598 16.562 C 36.719 16.602 13.145 39.668 12.473 68.539 L 16.199 68.148 C 17.094 41.844 38.406 20.832 64.723 20.312 L 66.84 16.652 C 66.426 16.617 66.012 16.59 65.598 16.562 Z M 95.402 25.785 L 93.547 28.988 C 107.023 38.199 115.094 53.457 115.125 69.777 C 115.082 78.129 112.93 86.332 108.867 93.625 L 111.203 97.203 C 116.184 88.922 118.812 79.441 118.812 69.777 C 118.781 52.141 110.016 35.664 95.402 25.785 Z M 24.094 96.773 L 20.09 97.191 C 29.695 113.172 46.957 122.957 65.598 122.996 C 73.855 122.988 82 121.062 89.383 117.363 L 87.32 114.207 C 80.562 117.535 73.133 119.281 65.598 119.305 C 48.844 119.297 33.227 110.82 24.094 96.773 Z M 24.094 96.773 " fill="#44566c"/>
<path stroke-width=".751178" stroke-linecap="butt" stroke-miterlimit="4" stroke-linejoin="miter" fill="none" stroke="#44566c" d="M 65.598 16.562 C 36.719 16.602 13.145 39.668 12.473 68.539 L 16.199 68.148 C 17.094 41.844 38.406 20.832 64.723 20.312 L 66.84 16.652 C 66.426 16.617 66.012 16.59 65.598 16.562 Z M 95.402 25.785 L 93.547 28.988 C 107.023 38.199 115.094 53.457 115.125 69.777 C 115.082 78.129 112.93 86.332 108.867 93.625 L 111.203 97.203 C 116.184 88.922 118.812 79.441 118.812 69.777 C 118.781 52.141 110.016 35.664 95.402 25.785 Z M 24.094 96.773 L 20.09 97.191 C 29.695 113.172 46.957 122.957 65.598 122.996 C 73.855 122.988 82 121.062 89.383 117.363 L 87.32 114.207 C 80.562 117.535 73.133 119.281 65.598 119.305 C 48.844 119.297 33.227 110.82 24.094 96.773 Z M 24.094 96.773 "/>
<path d="M 75.984 17.98 C 75.984 23.77 71.289 28.465 65.496 28.465 C 59.707 28.465 55.012 23.77 55.012 17.98 C 55.012 12.188 59.707 7.496 65.496 7.496 C 71.289 7.496 75.984 12.188 75.984 17.98 Z M 75.984 17.98 " fill="#44566c"/>
<path stroke-width=".571153" stroke-linecap="butt" stroke-miterlimit="4" stroke-linejoin="miter" fill="none" stroke="#44566c" d="M 75.984 17.98 C 75.984 23.77 71.289 28.465 65.496 28.465 C 59.707 28.465 55.012 23.77 55.012 17.98 C 55.012 12.188 59.707 7.496 65.496 7.496 C 71.289 7.496 75.984 12.188 75.984 17.98 Z M 75.984 17.98 "/>
<path d="M 119.023 100.34 C 119.023 106.129 114.328 110.824 108.535 110.824 C 102.746 110.824 98.051 106.129 98.051 100.34 C 98.051 94.551 102.746 89.855 108.535 89.855 C 114.328 89.855 119.023 94.551 119.023 100.34 Z M 119.023 100.34 " fill="#44566c"/>
<path stroke-width=".571153" stroke-linecap="butt" stroke-miterlimit="4" stroke-linejoin="miter" fill="none" stroke="#44566c" d="M 119.023 100.34 C 119.023 106.129 114.328 110.824 108.535 110.824 C 102.746 110.824 98.051 106.129 98.051 100.34 C 98.051 94.551 102.746 89.855 108.535 89.855 C 114.328 89.855 119.023 94.551 119.023 100.34 Z M 119.023 100.34 "/>
<path d="M 30.535 91.645 C 30.535 97.438 25.84 102.129 20.051 102.129 C 14.262 102.129 9.566 97.438 9.566 91.645 C 9.566 85.855 14.262 81.16 20.051 81.16 C 25.84 81.16 30.535 85.855 30.535 91.645 Z M 30.535 91.645 " fill="#44566c"/>
<path stroke-width=".571153" stroke-linecap="butt" stroke-miterlimit="4" stroke-linejoin="miter" fill="none" stroke="#44566c" d="M 30.535 91.645 C 30.535 97.438 25.84 102.129 20.051 102.129 C 14.262 102.129 9.566 97.438 9.566 91.645 C 9.566 85.855 14.262 81.16 20.051 81.16 C 25.84 81.16 30.535 85.855 30.535 91.645 Z M 30.535 91.645 "/>
<symbol id="font_0_1">
<path d="M .23300001 0 L 0 .18800001 L 0 .26500003 L .22900002 .44700004 L .22900002 .37300004 L .049 .22300002 L .23300001 .07000001 L .23300001 0 Z "/>
</symbol>
<symbol id="font_0_2">
<path d="M .23300001 .18800001 L 0 0 L 0 .07000001 L .185 .223 L 0 .37300004 L 0 .448 L .23300001 .26500003 L .23300001 .18800001 Z "/>
</symbol>
<use xlink:href="#font_0_1" transform="matrix(79.99994,0,0,-79.99994,41.99775,87.1783)" fill="#44566c"/>
<use xlink:href="#font_0_2" transform="matrix(79.99994,0,0,-79.99994,70.63773,88.1383)" fill="#44566c"/>
</g>
</g>
</svg>
